HIERARCHY
ROOT Hips
{
	OFFSET -0.001795 -0.223333 0.028219
	CHANNELS 6 Xposition Yposition Zposition Zrotation Yrotation Xrotation 
	JOINT LeftUpLeg
	{
		OFFSET 0.069520 -0.091406 -0.006815
		CHANNELS 3 Zrotation Yrotation Xrotation
		JOINT LeftLeg
		{
			OFFSET 0.034277 -0.375199 -0.004496
			CHANNELS 3 Zrotation Yrotation Xrotation
			JOINT LeftFoot
			{
				OFFSET -0.013596 -0.397961 -0.043693
				CHANNELS 3 Zrotation Yrotation Xrotation
				JOINT LeftToe
				{
					OFFSET 0.026358 -0.055791 0.119288
					CHANNELS 3 Zrotation Yrotation Xrotation
					End Site
					{
						OFFSET 0.000000 0.000000 0.000000
					}
				}
			}
		}
	}
	JOINT RightUpLeg
	{
		OFFSET -0.067670 -0.090522 -0.004320
		CHANNELS 3 Zrotation Yrotation Xrotation
		JOINT RightLeg
		{
			OFFSET -0.038290 -0.382569 -0.008850
			CHANNELS 3 Zrotation Yrotation Xrotation
			JOINT RightFoot
			{
				OFFSET 0.015774 -0.398415 -0.042312
				CHANNELS 3 Zrotation Yrotation Xrotation
				JOINT RightToe
				{
					OFFSET -0.025372 -0.048144 0.123348
					CHANNELS 3 Zrotation Yrotation Xrotation
					End Site
					{
						OFFSET 0.000000 0.000000 0.000000
					}
				}
			}
		}
	}
	JOINT Spine
	{
		OFFSET -0.002533 0.108963 -0.026696
		CHANNELS 3 Zrotation Yrotation Xrotation
		JOINT Spine1
		{
			OFFSET 0.005487 0.135180 0.001092
			CHANNELS 3 Zrotation Yrotation Xrotation
			JOINT Spine2
			{
				OFFSET 0.001457 0.052922 0.025425
				CHANNELS 3 Zrotation Yrotation Xrotation
				JOINT Neck
				{
					OFFSET -0.002778 0.213870 -0.042857
					CHANNELS 3 Zrotation Yrotation Xrotation
					JOINT Head
					{
						OFFSET 0.005152 0.064970 0.051349
						CHANNELS 3 Zrotation Yrotation Xrotation
						End Site
						{
							OFFSET 0.000000 0.000000 0.000000
						}
					}
				}
				JOINT LeftShoulder
				{
					OFFSET 0.078845 0.121749 -0.034090
					CHANNELS 3 Zrotation Yrotation Xrotation
					JOINT LeftArm
					{
						OFFSET 0.090977 0.030469 -0.008868
						CHANNELS 3 Zrotation Yrotation Xrotation
						JOINT LeftForeArm
						{
							OFFSET 0.259612 -0.012772 -0.027456
							CHANNELS 3 Zrotation Yrotation Xrotation
							JOINT LeftHand
							{
								OFFSET 0.249234 0.008986 -0.001171
								CHANNELS 3 Zrotation Yrotation Xrotation
								End Site
								{
									OFFSET 0.000000 0.000000 0.000000
								}
							}
						}
					}
				}
				JOINT RightShoulder
				{
					OFFSET -0.081759 0.118833 -0.038615
					CHANNELS 3 Zrotation Yrotation Xrotation
					JOINT RightArm
					{
						OFFSET -0.096012 0.032551 -0.009143
						CHANNELS 3 Zrotation Yrotation Xrotation
						JOINT RightForeArm
						{
							OFFSET -0.253742 -0.013329 -0.021401
							CHANNELS 3 Zrotation Yrotation Xrotation
							JOINT RightHand
							{
								OFFSET -0.255298 0.007772 -0.005559
								CHANNELS 3 Zrotation Yrotation Xrotation
								End Site
								{
									OFFSET 0.000000 0.000000 0.000000
								}
							}
						}
					}
				}
			}
		}
	}
}
MOTION
Frames: 16
Frame Time: 0.050000
0.084490 0.954890 -0.026555 -4.589295 20.418979 6.747205 12.933202 -0.976325 -8.146179 -3.900740 0.206685 -3.337143 0.949803 10.992592 19.785110 0.000000 0.000000 0.000000 -5.260274 0.443753 -12.179515 1.695227 -0.244827 1.023801 -0.318992 -4.210067 22.423215 0.000000 0.000000 0.000000 -5.294715 -0.609152 20.277595 5.547072 -0.740472 -17.030231 -0.267442 0.907882 26.623611 -8.119025 7.984435 -21.691599 0.000000 0.000000 0.000000 -22.171600 -14.398926 2.873336 -47.395280 -31.105382 5.115202 2.908227 -38.806040 -0.038929 0.000000 0.000000 0.000000 10.513503 16.943299 9.285140 55.236629 22.637434 3.563090 31.725243 65.678582 27.945693 0.000000 0.000000 0.000000 
0.083859 0.955014 -0.026845 -4.710829 20.451459 6.798727 13.384478 -0.997421 -8.370025 -4.390275 0.219779 -3.202777 0.964982 11.032544 19.884536 0.000000 0.000000 0.000000 -5.143795 0.459785 -12.218634 1.758848 -0.256314 0.843521 -0.322210 -4.230400 22.563924 0.000000 0.000000 0.000000 -5.433424 -0.601967 20.499984 5.340942 -0.686653 -16.895215 -0.235669 1.388082 26.570871 -8.640159 8.332392 -21.945315 0.000000 0.000000 0.000000 -21.747075 -14.702655 2.924957 -46.830440 -31.814273 5.307944 3.631674 -37.852608 -0.327684 0.000000 0.000000 0.000000 10.264232 17.591968 9.596336 55.055566 24.239328 4.407220 30.688497 66.741560 27.865232 0.000000 0.000000 0.000000 
0.083303 0.955377 -0.027025 -4.708657 20.651126 6.741115 13.523342 -1.010374 -8.267748 -4.571246 0.218102 -3.419225 0.825761 10.915707 20.048625 0.000000 0.000000 0.000000 -5.011733 0.469992 -12.042644 1.818647 -0.269548 0.501328 -0.815664 -5.033392 22.998132 0.000000 0.000000 0.000000 -5.599710 -0.609539 20.900921 4.935150 -0.572961 -16.631716 0.059657 1.707248 26.405648 -8.840603 8.489480 -21.623750 0.000000 0.000000 0.000000 -21.212492 -15.245792 3.159559 -46.610608 -32.423523 5.501965 4.149559 -37.342831 -0.530413 0.000000 0.000000 0.000000 9.560380 18.034682 9.640255 54.913966 25.348084 5.075514 29.924209 67.500148 27.744753 0.000000 0.000000 0.000000 
0.082766 0.955724 -0.027098 -4.740795 21.093414 6.584056 13.691176 -1.031554 -8.288324 -4.728820 0.216188 -3.363294 0.574895 10.664860 20.106256 0.000000 0.000000 0.000000 -4.900884 0.467239 -11.822425 1.912345 -0.287612 0.394979 -1.306276 -5.748666 23.285811 0.000000 0.000000 0.000000 -5.915408 -0.615051 21.447821 5.026434 -0.598129 -16.567153 -0.010163 2.119590 26.447225 -8.994831 8.645333 -21.911029 0.000000 0.000000 0.000000 -21.230261 -15.971679 3.357039 -46.008715 -33.532541 5.870197 4.858651 -36.478280 -0.789660 0.000000 0.000000 0.000000 9.368526 18.288507 9.786938 54.506307 25.655070 5.206052 30.753568 68.319054 28.895467 0.000000 0.000000 0.000000 
0.082219 0.955702 -0.027100 -4.720643 21.823125 6.607240 13.792895 -1.063481 -8.556085 -4.832015 0.208284 -3.318447 0.214222 10.281725 20.069790 0.000000 0.000000 0.000000 -5.018100 0.436459 -11.834149 2.381181 -0.365438 0.529035 -2.063585 -6.802220 23.350762 0.000000 0.000000 0.000000 -6.138385 -0.642590 21.904071 4.822414 -0.514045 -16.620123 -0.117154 1.982534 26.381077 -9.246387 8.800687 -21.851282 0.000000 0.000000 0.000000 -20.677247 -16.369388 3.546935 -46.412714 -34.618581 6.338094 5.036943 -36.485670 -0.864182 0.000000 0.000000 0.000000 9.142728 18.134960 9.685083 54.196221 25.090644 4.903899 36.274728 68.597979 33.218419 0.000000 0.000000 0.000000 
0.081636 0.955506 -0.027010 -4.702829 22.787327 6.454268 13.822944 -1.097598 -8.698434 -4.806116 0.195177 -3.267524 -0.271312 9.736661 19.923418 0.000000 0.000000 0.000000 -5.084189 0.399532 -11.660251 2.944225 -0.465221 0.565000 -3.264215 -8.526573 23.767634 0.000000 0.000000 0.000000 -6.338329 -0.726707 22.743770 4.701759 -0.443580 -16.841416 -0.267758 2.025047 26.356412 -9.412302 8.949612 -21.779669 0.000000 0.000000 0.000000 -20.755392 -17.296706 3.869734 -46.474770 -35.844339 6.887236 4.963292 -36.289801 -0.863985 0.000000 0.000000 0.000000 8.824495 17.931005 9.569059 53.740542 23.603522 4.141580 44.618412 69.096540 40.114532 0.000000 0.000000 0.000000 
0.081210 0.954859 -0.026846 -4.717019 23.645358 6.271595 13.905230 -1.126980 -9.157518 -4.838763 0.197176 -2.561545 -0.634027 9.256632 19.546020 0.000000 0.000000 0.000000 -5.157590 0.366226 -11.794703 3.712301 -0.613728 1.310711 -4.633407 -10.505531 23.578172 0.000000 0.000000 0.000000 -6.648397 -0.778313 23.447012 4.597678 -0.389719 -16.919490 -0.640704 2.049259 26.174032 -9.897646 9.256903 -21.707683 0.000000 0.000000 0.000000 -20.593107 -17.665131 3.923539 -47.032921 -37.046760 7.523768 4.678154 -36.013511 -0.793879 0.000000 0.000000 0.000000 8.804357 17.817492 9.574310 53.381099 22.247807 3.460117 51.748318 68.623115 45.528030 0.000000 0.000000 0.000000 
0.080852 0.954017 -0.026556 -4.580695 24.371606 6.200480 13.740430 -1.142824 -9.251007 -4.721095 0.186144 -2.508791 -0.969088 8.819159 19.259156 0.000000 0.000000 0.000000 -5.229166 0.332832 -11.708029 4.135156 -0.705259 1.564421 -5.804250 -12.217609 23.354597 0.000000 0.000000 0.000000 -6.817523 -0.850400 24.123769 4.206234 -0.225330 -17.407696 -0.554064 2.347695 26.551479 -10.248406 9.551061 -21.804156 0.000000 0.000000 0.000000 -20.720265 -18.724692 4.261252 -47.343578 -38.095802 8.050760 5.444287 -35.289557 -1.050134 0.000000 0.000000 0.000000 8.525816 17.783878 9.567852 53.501059 21.664867 3.238628 54.334264 68.580324 47.818275 0.000000 0.000000 0.000000 
0.080660 0.953045 -0.026252 -4.608697 25.025151 5.993804 13.893550 -1.170834 -9.490328 -4.888175 0.187954 -2.026607 -1.206158 8.440292 18.860104 0.000000 0.000000 0.000000 -5.220076 0.312612 -11.660246 4.622722 -0.818376 1.982394 -6.834544 -13.746510 23.179652 0.000000 0.000000 0.000000 -6.925431 -0.917761 24.577935 3.932488 -0.126203 -17.479603 -0.779130 2.502690 26.622867 -10.284628 9.633930 -21.571505 0.000000 0.000000 0.000000 -20.904340 -19.167790 4.309789 -47.342419 -38.910181 8.442819 5.382590 -34.205183 -1.015921 0.000000 0.000000 0.000000 8.344958 18.073145 9.706052 53.737625 21.654064 3.330782 54.003820 68.464012 47.536392 0.000000 0.000000 0.000000 
0.080363 0.952432 -0.025881 -4.596207 25.605770 5.753126 13.833627 -1.184436 -9.460169 -4.758033 0.179752 -1.875368 -1.472325 8.061926 18.587156 0.000000 0.000000 0.000000 -5.206704 0.292473 -11.405349 4.640681 -0.838304 2.185702 -7.149697 -14.150711 23.059363 0.000000 0.000000 0.000000 -7.103621 -1.007118 25.393707 3.610914 -0.007343 -17.713155 -0.551122 2.834026 26.569723 -9.794733 9.421789 -21.596148 0.000000 0.000000 0.000000 -20.815695 -19.776407 4.431360 -47.633200 -39.425414 8.775889 5.847399 -33.264727 -1.162191 0.000000 0.000000 0.000000 7.565412 18.013954 9.491436 55.098526 22.110216 3.961300 49.906217 68.321903 44.285595 0.000000 0.000000 0.000000 
0.079879 0.952130 -0.025510 -4.654212 26.045072 5.619869 13.855511 -1.199865 -9.625390 -4.620874 0.175002 -1.581275 -1.665094 7.798235 18.411255 0.000000 0.000000 0.000000 -4.926423 0.316394 -11.275043 4.330809 -0.787838 2.294802 -7.411886 -14.479316 23.025861 0.000000 0.000000 0.000000 -7.334346 -1.030560 25.773234 3.744320 -0.029320 -17.868078 -0.580642 3.026579 26.638557 -9.565467 9.347933 -21.425034 0.000000 0.000000 0.000000 -20.667399 -19.949798 4.394874 -47.716222 -39.737789 8.926787 6.161327 -32.165127 -1.229125 0.000000 0.000000 0.000000 7.412272 18.323272 9.624064 56.017994 23.186324 4.760228 43.860807 68.420699 39.601740 0.000000 0.000000 0.000000 
0.079111 0.952266 -0.025037 -4.756007 26.504729 5.568286 14.093168 -1.231773 -9.750952 -4.739178 0.171150 -1.575263 -1.891151 7.573027 18.473725 0.000000 0.000000 0.000000 -4.600607 0.348571 -11.134423 4.051827 -0.736375 2.182337 -7.669038 -14.784421 23.159339 0.000000 0.000000 0.000000 -7.495371 -1.069247 26.131000 3.665234 0.003571 -17.896665 -0.503541 3.029409 26.284417 -9.314159 9.210759 -21.109902 0.000000 0.000000 0.000000 -20.417554 -19.954057 4.333360 -47.804704 -39.914870 9.041335 6.192324 -31.172200 -1.206595 0.000000 0.000000 0.000000 7.056433 18.283836 9.505775 57.698002 23.666009 5.506910 39.060254 67.892985 35.535158 0.000000 0.000000 0.000000 
0.078105 0.952466 -0.024488 -4.885694 26.746095 5.525946 14.225272 -1.248754 -9.922758 -4.603419 0.167342 -1.414462 -2.014507 7.459145 18.514973 0.000000 0.000000 0.000000 -4.147193 0.401574 -10.903812 3.623513 -0.647577 1.809314 -7.818778 -14.955557 23.278371 0.000000 0.000000 0.000000 -7.675134 -1.059623 26.228705 3.833882 -0.037122 -17.994046 -0.455628 3.047590 26.453047 -9.276673 9.218617 -21.279841 0.000000 0.000000 0.000000 -20.275389 -19.785816 4.212411 -47.946512 -39.917260 9.040579 6.486616 -30.613037 -1.266752 0.000000 0.000000 0.000000 7.263299 18.387178 9.634349 58.632632 24.325050 6.067649 33.749103 67.762645 31.461549 0.000000 0.000000 0.000000 
0.077062 0.952676 -0.023961 -4.932431 26.935705 5.505394 14.178583 -1.253063 -10.030569 -4.304421 0.159922 -1.312829 -2.136333 7.349777 18.562374 0.000000 0.000000 0.000000 -3.854837 0.435369 -10.831677 3.332116 -0.592607 1.726343 -7.937907 -15.097504 23.338233 0.000000 0.000000 0.000000 -7.834506 -1.059351 26.411011 4.277340 -0.173698 -17.861340 -0.532001 3.096324 26.113749 -8.905753 9.010675 -20.971163 0.000000 0.000000 0.000000 -20.544073 -19.677921 4.084585 -47.848089 -39.624374 8.972590 6.214974 -30.380963 -1.190602 0.000000 0.000000 0.000000 7.481387 18.642563 9.832132 59.326813 24.644200 6.440385 29.456493 67.103911 27.843219 0.000000 0.000000 0.000000 
0.076170 0.952609 -0.023689 -5.004625 27.041812 5.489629 14.179269 -1.256771 -10.207360 -4.069489 0.154928 -1.097071 -2.182963 7.292201 18.518218 0.000000 0.000000 0.000000 -3.672289 0.455838 -10.786322 3.242605 -0.575272 1.619892 -8.006930 -15.184979 23.331553 0.000000 0.000000 0.000000 -7.937277 -1.069170 26.620846 4.574787 -0.245853 -18.153712 -0.572944 3.138504 26.319186 -8.781913 8.957347 -21.444935 0.000000 0.000000 0.000000 -20.616589 -19.682510 4.049983 -47.946809 -39.406873 8.904572 6.444136 -30.296088 -1.253938 0.000000 0.000000 0.000000 7.584241 18.628445 9.875167 60.577180 24.670233 6.743143 25.090738 66.044066 24.215679 0.000000 0.000000 0.000000 
0.075630 0.952389 -0.023665 -5.014690 27.190722 5.501078 14.133862 -1.261583 -10.389925 -3.910019 0.149733 -0.904564 -2.240607 7.206370 18.435424 0.000000 0.000000 0.000000 -3.480053 0.478971 -10.825228 2.980749 -0.528496 1.670602 -8.117067 -15.327747 23.290241 0.000000 0.000000 0.000000 -7.949155 -1.077707 26.638952 4.946356 -0.369227 -17.843546 -0.694470 2.876660 26.000967 -8.682265 8.858931 -21.251834 0.000000 0.000000 0.000000 -20.796410 -19.690943 4.109377 -47.778610 -39.267860 8.851949 6.319570 -30.138141 -1.197214 0.000000 0.000000 0.000000 7.644733 18.719136 9.910400 61.350699 24.760429 6.981701 21.246667 64.770869 20.903264 0.000000 0.000000 0.000000 
